<svg width="339" height="217" viewBox="0 0 339 217" fill="none" xmlns="http://www.w3.org/2000/svg">
<path d="M57.8294 0.47849H0V109.337C15.2574 77.8493 26.6293 59.0698 57.8294 21.2135V0.47849Z" fill="#FCD13B"/>
<path d="M90.5329 2.87101C79.1 5.79517 68.1988 11.9093 57.8294 21.2135C26.6293 59.0698 15.2574 77.8493 0 109.337V217H59.0259V112.926C59.0259 102.824 61.02 94.1849 65.0082 87.0074C68.9965 79.564 74.0482 73.8486 80.1635 69.8611C86.2788 65.6077 92.7929 63.0823 99.7059 62.2848C106.619 61.4873 113.133 62.8165 119.248 66.2723C125.364 69.4623 130.415 74.9119 134.404 82.6211C138.392 90.3303 140.386 100.432 140.386 112.926C154.297 79.7755 158.797 74.2755 180.268 41.9485C173.355 31.0494 164.98 22.1439 155.142 15.2323C145.305 8.05474 134.935 3.40266 124.034 1.276C113.133 -0.850669 101.966 -0.319001 90.5329 2.87101Z" fill="#FF0458"/>
<path d="M198.614 217V112.926C199.042 89.4118 196.336 74.5973 180.268 41.9485C158.797 74.2755 154.297 79.7755 140.386 112.926V217H198.614Z" fill="#00F0B6"/>
<path d="M189.441 28.391C185.719 33.176 182.661 37.6952 180.268 41.9485C196.336 74.5973 199.042 89.4118 198.614 112.926C198.614 106.546 199.412 100.299 201.007 94.1849C202.868 88.0707 205.527 82.6211 208.984 77.8361C212.44 73.0511 216.694 69.1965 221.746 66.2723C226.798 63.3482 232.647 61.8861 239.294 61.8861C246.207 61.8861 252.19 63.3482 257.241 66.2723C262.293 69.1965 266.414 73.0511 269.605 77.8361C273.061 82.6211 275.587 88.0707 277.182 94.1849C279.044 100.299 279.974 106.546 279.974 112.926V217H339V109.337C339 94.4507 336.873 80.3615 332.619 67.0698C328.365 53.7781 322.515 42.2144 315.071 32.3785C307.626 22.5427 298.719 14.8335 288.35 9.251C278.246 3.40266 267.079 0.47849 254.848 0.47849H245.675C237.433 0.47849 229.722 1.80766 222.544 4.46599C215.631 7.12434 209.382 10.5802 203.799 14.8335C198.215 18.821 193.429 23.3402 189.441 28.391Z" fill="#45BCFF"/>
</svg>
